<?xml version="1.0" encoding="utf-8"?>
<!-- Generator: Adobe Illustrator 16.0.4, SVG Export Plug-In . SVG Version: 6.00 Build 0)  -->
<!DOCTYPE svg PUBLIC "-//W3C//DTD SVG 1.1//EN" "http://www.w3.org/Graphics/SVG/1.1/DTD/svg11.dtd">
<svg version="1.1" id="Layer_1" xmlns="http://www.w3.org/2000/svg" xmlns:xlink="http://www.w3.org/1999/xlink" x="0px" y="0px"
	 width="145px" height="145px" viewBox="0 0 145 145" enable-background="new 0 0 145 145" xml:space="preserve">
<g>
	<path fill="#FFFFFF" d="M70.327,49.55c-2.401,0-4.662,0.61-6.781,1.829c-2.12,1.22-4.174,3.18-6.163,5.881
		c-1.989,2.701-3.583,5.984-4.783,9.848c-1.201,3.865-1.801,7.411-1.801,10.636c0,5.141,1.219,9.137,3.658,11.987
		c2.438,2.852,5.234,4.277,8.385,4.277c2.101,0,4.314-0.628,6.641-1.886c2.326-1.256,4.549-3.123,6.67-5.6
		c2.119-2.476,3.854-5.618,5.205-9.426c1.35-3.808,2.025-7.626,2.025-11.453c0-5.102-1.266-9.061-3.799-11.875
		C77.053,50.957,73.965,49.55,70.327,49.55z"/>
	<path fill="#FFFFFF" d="M72.5,0C32.459,0,0,32.459,0,72.5C0,112.541,32.459,145,72.5,145c40.041,0,72.5-32.459,72.5-72.5
		C145,32.459,112.541,0,72.5,0z M115.686,113.143c-4.652,4.09-10.186,7.325-16.602,9.708s-14.145,3.574-23.186,3.574
		c-8.329,0-16.011-1.069-23.046-3.208s-13.028-5.356-17.98-9.651c-4.953-4.297-8.686-9.239-11.199-14.829
		c-3.151-7.091-4.728-14.745-4.728-22.962c0-9.153,1.876-17.876,5.628-26.168c4.577-10.167,11.077-17.953,19.5-23.355
		c8.422-5.402,18.637-8.104,30.644-8.104c9.305,0,17.66,1.904,25.07,5.712c7.41,3.809,13.254,9.483,17.531,17.024
		c3.639,6.491,5.459,13.544,5.459,21.16c0,10.881-3.826,20.541-11.48,28.983c-6.828,7.579-14.295,11.368-22.398,11.368
		c-2.588,0-4.682-0.395-6.275-1.183c-1.596-0.787-2.768-1.913-3.518-3.376c-0.488-0.938-0.844-2.552-1.068-4.84
		c-2.439,2.813-5.169,5.074-8.188,6.781c-3.021,1.707-6.05,2.561-9.089,2.561c-3.34,0-6.584-0.976-9.736-2.927
		c-3.151-1.95-5.712-4.952-7.682-9.004s-2.955-8.498-2.955-13.338c0-5.965,1.528-11.94,4.586-17.924
		c3.058-5.984,6.856-10.477,11.396-13.479c4.539-3.001,8.948-4.502,13.225-4.502c3.264,0,6.377,0.854,9.342,2.561
		c2.963,1.708,5.516,4.306,7.654,7.794l1.912-8.723h10.074l-8.104,37.762c-1.127,5.253-1.689,8.16-1.689,8.723
		c0,1.013,0.385,1.886,1.154,2.617s1.697,1.098,2.785,1.098c1.988,0,4.596-1.145,7.822-3.434c4.277-3.001,7.664-7.024,10.158-12.071
		c2.496-5.045,3.744-10.251,3.744-15.617c0-6.266-1.605-12.118-4.812-17.559c-3.207-5.44-7.992-9.792-14.352-13.057
		S81.9,26.363,74.209,26.363c-8.778,0-16.798,2.054-24.058,6.163c-7.26,4.108-12.888,9.999-16.883,17.671
		c-3.996,7.673-5.994,15.898-5.994,24.677c0,9.193,1.998,17.108,5.994,23.749c3.996,6.642,9.773,11.546,17.333,14.717
		c7.56,3.17,15.936,4.756,25.127,4.756c9.83,0,18.066-1.651,24.707-4.953s11.611-7.315,14.914-12.043h10.186
		C123.621,105.039,120.338,109.054,115.686,113.143z"/>
</g>
</svg>
